<svg width="13" height="24" viewBox="0 0 13 24" fill="none" xmlns="http://www.w3.org/2000/svg">
<path d="M10.8327 23.9689C10.5775 23.9697 10.3253 23.9134 10.0948 23.804C9.86416 23.6946 9.66101 23.535 9.50023 23.3368L1.24898 13.0868C0.997712 12.7811 0.860352 12.3977 0.860352 12.002C0.860352 11.6063 0.997712 11.2229 1.24898 10.9172L9.79064 0.667188C10.0806 0.318318 10.4973 0.0989263 10.949 0.0572776C11.4008 0.0156289 11.8505 0.155135 12.1994 0.445105C12.5483 0.735075 12.7677 1.15176 12.8093 1.60348C12.851 2.05521 12.7114 2.50498 12.4215 2.85385L4.78523 12.0105L12.1652 21.1672C12.3741 21.4179 12.5068 21.7233 12.5476 22.0471C12.5884 22.3709 12.5356 22.6996 12.3954 22.9944C12.2552 23.2891 12.0336 23.5375 11.7566 23.7102C11.4797 23.8829 11.1591 23.9727 10.8327 23.9689Z" fill="black"/>
</svg>
