<svg viewBox="0 0 37 37" fill="none" xmlns="http://www.w3.org/2000/svg">
<circle cx="18.5" cy="18.5" r="18.5" fill="#F5F5F5"/>
<path fill-rule="evenodd" clip-rule="evenodd" d="M9 18.5586C9 23.7789 12.6108 28.1197 17.3333 29V21.4164H14.8333V18.5H17.3333V16.1664C17.3333 13.5414 18.9442 12.0836 21.2225 12.0836C21.9442 12.0836 22.7225 12.2 23.4442 12.3164V15H22.1667C20.9442 15 20.6667 15.6414 20.6667 16.4586V18.5H23.3333L22.8892 21.4164H20.6667V29C25.3892 28.1197 29 23.7798 29 18.5586C29 12.7513 24.5 8 19 8C13.5 8 9 12.7513 9 18.5586Z" fill="#5065F4"/>
</svg>
