<svg width="26" height="23" viewBox="0 0 26 23" fill="none" xmlns="http://www.w3.org/2000/svg">
<path d="M5.23132 8.0564C4.14301 8.33025 3.19215 8.99209 2.5574 9.91757C1.92266 10.843 1.6477 11.9685 1.7842 13.0824C1.9207 14.1963 2.45926 15.222 3.29869 15.9668C4.13812 16.7116 5.22065 17.1243 6.34288 17.1273H7.49357M13.247 11.3738V21.73V11.3738ZM13.247 11.3738L10.3703 13.6752L13.247 11.3738ZM13.247 11.3738L16.1237 13.6752L13.247 11.3738Z" stroke="black" stroke-width="2" stroke-linecap="round" stroke-linejoin="round"/>
<path d="M17.6539 5.77921C17.2606 4.22183 16.2899 2.87227 14.9384 2.00409C13.587 1.13592 11.956 0.814087 10.3761 1.10385C8.79619 1.3936 7.38556 2.27327 6.43017 3.56452C5.47478 4.85577 5.04612 6.46199 5.23108 8.05757C5.23108 8.05757 5.40714 9.07248 5.7673 9.64783" stroke="black" stroke-width="2" stroke-linecap="round" stroke-linejoin="round"/>
<path d="M19.0007 17.1274C19.8132 17.1268 20.6163 16.9542 21.3572 16.6209C22.0981 16.2876 22.76 15.8012 23.2994 15.1936C23.8388 14.5861 24.2434 13.8712 24.4865 13.096C24.7297 12.3208 24.8059 11.5029 24.7102 10.6961C24.6145 9.88934 24.349 9.11198 23.9312 8.41521C23.5134 7.71844 22.9528 7.11805 22.2862 6.65355C21.6197 6.18906 20.8623 5.87101 20.064 5.72032C19.2656 5.56963 18.4444 5.58972 17.6544 5.77928L16.124 6.19583" stroke="black" stroke-width="2" stroke-linecap="round" stroke-linejoin="round"/>
</svg>
