<svg width="22" height="21" viewBox="0 0 22 21" fill="none" xmlns="http://www.w3.org/2000/svg">
<path d="M10.125 10.5C10.125 10.7984 10.2435 11.0845 10.4545 11.2955C10.6655 11.5065 10.9516 11.625 11.25 11.625C11.5484 11.625 11.8345 11.5065 12.0455 11.2955C12.2565 11.0845 12.375 10.7984 12.375 10.5C12.375 10.2016 12.2565 9.91548 12.0455 9.7045C11.8345 9.49353 11.5484 9.375 11.25 9.375C10.9516 9.375 10.6655 9.49353 10.4545 9.7045C10.2435 9.91548 10.125 10.2016 10.125 10.5ZM14.8125 10.5C14.8125 10.7984 14.931 11.0845 15.142 11.2955C15.3529 11.5065 15.6391 11.625 15.9374 11.625C16.2358 11.625 16.522 11.5065 16.7329 11.2955C16.9439 11.0845 17.0624 10.7984 17.0624 10.5C17.0624 10.2016 16.9439 9.91548 16.7329 9.7045C16.522 9.49353 16.2358 9.375 15.9374 9.375C15.6391 9.375 15.3529 9.49353 15.142 9.7045C14.931 9.91548 14.8125 10.2016 14.8125 10.5ZM5.43757 10.5C5.43757 10.7984 5.5561 11.0845 5.76707 11.2955C5.97805 11.5065 6.2642 11.625 6.56256 11.625C6.86092 11.625 7.14707 11.5065 7.35805 11.2955C7.56902 11.0845 7.68755 10.7984 7.68755 10.5C7.68755 10.2016 7.56902 9.91548 7.35805 9.7045C7.14707 9.49353 6.86092 9.375 6.56256 9.375C6.2642 9.375 5.97805 9.49353 5.76707 9.7045C5.5561 9.91548 5.43757 10.2016 5.43757 10.5ZM20.9343 6.43125C20.4046 5.17266 19.6452 4.04297 18.6773 3.07266C17.7161 2.10796 16.575 1.34114 15.3187 0.815625C14.0297 0.274219 12.6609 0 11.25 0H11.2031C9.78283 0.00703125 8.40707 0.288281 7.11333 0.841406C5.86778 1.37232 4.73742 2.14049 3.78525 3.10312C2.82667 4.07109 2.07434 5.19609 1.55403 6.45C1.01497 7.74844 0.743102 9.12891 0.750133 10.5492C0.758086 12.1769 1.14316 13.7806 1.87512 15.2344V18.7969C1.87512 19.0828 1.98871 19.357 2.19089 19.5592C2.39308 19.7614 2.6673 19.875 2.95323 19.875H6.51803C7.97183 20.607 9.57548 20.992 11.2031 21H11.2523C12.6562 21 14.0179 20.7281 15.2999 20.1961C16.5499 19.6768 17.6867 18.919 18.6468 17.9648C19.6147 17.0063 20.3764 15.8859 20.9085 14.6367C21.4616 13.343 21.7428 11.9672 21.7499 10.5469C21.7569 9.11953 21.4803 7.73438 20.9343 6.43125ZM17.3929 16.6969C15.7499 18.3234 13.5703 19.2188 11.25 19.2188H11.2102C9.79689 19.2117 8.39301 18.8602 7.15318 18.1992L6.95631 18.0938H3.65635V14.7938L3.55088 14.5969C2.88995 13.357 2.53839 11.9531 2.53136 10.5398C2.52199 8.20312 3.41494 6.00937 5.0532 4.35703C6.68912 2.70469 8.87581 1.79062 11.2125 1.78125H11.2523C12.4242 1.78125 13.5609 2.00859 14.632 2.45859C15.6773 2.89687 16.6148 3.52734 17.421 4.33359C18.2249 5.1375 18.8577 6.07734 19.296 7.12266C19.7507 8.20547 19.978 9.35391 19.9733 10.5398C19.9593 12.8742 19.0429 15.0609 17.3929 16.6969Z" fill="black"/>
</svg>
