<svg viewBox="0 0 37 37" fill="none" xmlns="http://www.w3.org/2000/svg">
<circle cx="18.5" cy="18.5" r="18.5" fill="#F5F5F5"/>
<path d="M19 8C13.4771 8 9 12.7009 9 18.5C9 24.2991 13.4771 29 19 29C24.5229 29 29 24.2991 29 18.5C29 12.7009 24.5229 8 19 8ZM16.5521 22.852H14.5271V16.0095H16.5521V22.852ZM15.5271 15.1695C14.8875 15.1695 14.474 14.6937 14.474 14.1053C14.474 13.5048 14.9 13.0433 15.5531 13.0433C16.2062 13.0433 16.6062 13.5048 16.6187 14.1053C16.6187 14.6937 16.2062 15.1695 15.5271 15.1695ZM23.9479 22.852H21.9229V19.06C21.9229 18.1773 21.6292 17.578 20.8969 17.578C20.3375 17.578 20.0052 17.9838 19.8583 18.3742C19.8042 18.5131 19.7906 18.71 19.7906 18.9058V22.8509H17.7646V18.1916C17.7646 17.3373 17.7385 16.6231 17.7115 16.0084H19.4708L19.5635 16.9589H19.6042C19.8708 16.5127 20.524 15.8542 21.6167 15.8542C22.949 15.8542 23.9479 16.7916 23.9479 18.8063V22.852V22.852Z" fill="#435CBD"/>
</svg>
