<svg width="18" height="19" viewBox="0 0 18 19" fill="none" xmlns="http://www.w3.org/2000/svg">
<path d="M16.8333 15.4469V9.25129C16.8334 8.82025 16.7454 8.39373 16.5749 7.99787C16.4043 7.60201 16.1547 7.24514 15.8414 6.94913L10.0044 1.43279C9.71044 1.15486 9.32123 1 8.91667 1C8.51211 1 8.12289 1.15486 7.82892 1.43279L1.99196 6.94913C1.67864 7.24514 1.42905 7.60201 1.25848 7.99787C1.08791 8.39373 0.999954 8.82025 1 9.25129V15.4469C1 15.8668 1.16681 16.2695 1.46375 16.5665C1.76068 16.8634 2.16341 17.0302 2.58333 17.0302H15.25C15.6699 17.0302 16.0727 16.8634 16.3696 16.5665C16.6665 16.2695 16.8333 15.8668 16.8333 15.4469Z" stroke="#FF4A00" stroke-width="2" stroke-linecap="round" stroke-linejoin="round"/>
</svg>
