<svg viewBox="0 0 37 37" fill="none" xmlns="http://www.w3.org/2000/svg">
<circle cx="18.5" cy="18.5" r="18.5" fill="#F5F5F5"/>
<path d="M15.1618 18.4198C16.2132 17.3684 18.047 17.3684 19.0984 18.4198L19.7545 19.0759L21.0667 17.7637L20.4106 17.1076C19.5355 16.2315 18.3699 15.748 17.1301 15.748C15.8903 15.748 14.7247 16.2315 13.8496 17.1076L11.8804 19.0759C11.012 19.947 10.5244 21.1269 10.5244 22.3569C10.5244 23.5869 11.012 24.7667 11.8804 25.6378C12.3108 26.0689 12.8223 26.4107 13.3852 26.6435C13.9482 26.8764 14.5516 26.9957 15.1609 26.9946C15.7702 26.9959 16.3739 26.8766 16.937 26.6438C17.5002 26.411 18.0117 26.0691 18.4423 25.6378L19.0984 24.9817L17.7862 23.6695L17.1301 24.3256C16.6071 24.8462 15.8993 25.1385 15.1613 25.1385C14.4234 25.1385 13.7155 24.8462 13.1926 24.3256C12.6715 23.8029 12.3789 23.0949 12.3789 22.3569C12.3789 21.6188 12.6715 20.9108 13.1926 20.3881L15.1618 18.4198Z" fill="#DB5027"/>
<path d="M18.4428 12.5149L17.7867 13.171L19.0989 14.4832L19.755 13.8271C20.2779 13.3065 20.9858 13.0142 21.7237 13.0142C22.4617 13.0142 23.1695 13.3065 23.6925 13.8271C24.2136 14.3498 24.5062 15.0578 24.5062 15.7959C24.5062 16.534 24.2136 17.2419 23.6925 17.7647L21.7233 19.733C20.6718 20.7844 18.8381 20.7844 17.7867 19.733L17.1306 19.0769L15.8184 20.3891L16.4745 21.0452C17.3496 21.9212 18.5152 22.4047 19.755 22.4047C20.9948 22.4047 22.1604 21.9212 23.0355 21.0452L25.0047 19.0769C25.8731 18.2057 26.3607 17.0259 26.3607 15.7959C26.3607 14.5659 25.8731 13.386 25.0047 12.5149C24.1338 11.6461 22.9539 11.1582 21.7237 11.1582C20.4936 11.1582 19.3137 11.6461 18.4428 12.5149V12.5149Z" fill="#DB5027"/>
</svg>
