<svg viewBox="0 0 37 37" fill="none" xmlns="http://www.w3.org/2000/svg">
<circle cx="18.5" cy="18.5" r="18.5" fill="#F5F5F5"/>
<path d="M19 8C13.4777 8 9 12.4777 9 18C9 23.5223 13.4777 28 19 28C24.5223 28 29 23.5223 29 18C29 12.4777 24.5223 8 19 8ZM23.8058 15.5379C23.8125 15.6429 23.8125 15.7522 23.8125 15.8594C23.8125 19.1362 21.317 22.9107 16.7567 22.9107C15.3504 22.9107 14.0469 22.5022 12.9487 21.7991C13.1496 21.8214 13.3415 21.8304 13.5469 21.8304C14.7076 21.8304 15.7746 21.4375 16.625 20.7723C15.5357 20.75 14.6205 20.0357 14.308 19.0536C14.6897 19.1094 15.0335 19.1094 15.4263 19.0089C14.8655 18.895 14.3613 18.5904 13.9996 18.1468C13.6379 17.7033 13.4408 17.1482 13.442 16.5759V16.5446C13.7701 16.7299 14.1563 16.8438 14.5603 16.8594C14.2206 16.633 13.9421 16.3264 13.7494 15.9666C13.5566 15.6068 13.4556 15.205 13.4554 14.7969C13.4554 14.3348 13.5759 13.9129 13.7924 13.5469C14.415 14.3133 15.1918 14.94 16.0725 15.3865C16.9531 15.833 17.9179 16.0892 18.904 16.1384C18.5536 14.4531 19.8125 13.0893 21.3259 13.0893C22.0402 13.0893 22.683 13.3884 23.1362 13.8705C23.6964 13.7656 24.2321 13.5558 24.7098 13.2746C24.5246 13.8482 24.1362 14.3326 23.6205 14.6384C24.1205 14.5848 24.6027 14.4464 25.0491 14.2522C24.7121 14.7478 24.2902 15.1875 23.8058 15.5379V15.5379Z" fill="#6799ED"/>
</svg>
